<?xml version="1.0" encoding="UTF-8"?>
<svg xmlns="http://www.w3.org/2000/svg" xmlns:xlink="http://www.w3.org/1999/xlink" viewBox="0 0 64 64" width="64px" height="64px">
<g id="surface31627479">
<path style=" stroke:none;fill-rule:nonzero;fill:rgb(100%,100%,100%);fill-opacity:1;" d="M 31.984375 0.0195312 C 31.085938 0.0195312 30.191406 0.242188 29.414062 0.683594 L 5.035156 14.757812 C 3.460938 15.667969 2.480469 17.390625 2.480469 19.210938 L 2.480469 44.742188 C 2.480469 46.585938 3.460938 48.285156 5.035156 49.195312 L 11.4375 52.886719 C 14.535156 54.410156 15.640625 54.410156 17.042969 54.410156 C 21.644531 54.410156 24.273438 51.628906 24.273438 46.808594 L 24.273438 20.464844 C 24.273438 20.070312 23.957031 19.75 23.5625 19.75 L 20.488281 19.75 C 20.070312 19.75 19.773438 20.070312 19.773438 20.464844 L 19.773438 46.785156 C 19.773438 48.949219 17.535156 51.0625 13.921875 49.269531 L 7.226562 45.40625 C 6.980469 45.28125 6.832031 45.011719 6.832031 44.742188 L 6.832031 19.234375 C 6.832031 18.9375 6.980469 18.691406 7.226562 18.542969 L 31.605469 4.472656 C 31.828125 4.328125 32.125 4.328125 32.371094 4.472656 L 56.75 18.542969 C 56.996094 18.691406 57.144531 18.9375 57.144531 19.210938 L 57.144531 44.742188 C 57.144531 45.011719 56.996094 45.28125 56.773438 45.40625 L 32.371094 59.503906 C 32.148438 59.625 31.828125 59.625 31.605469 59.503906 L 25.332031 55.789062 C 25.160156 55.664062 24.917969 55.640625 24.746094 55.738281 C 23 56.722656 22.679688 56.847656 21.054688 57.410156 C 20.660156 57.535156 20.046875 57.78125 21.277344 58.46875 L 29.414062 63.292969 C 30.203125 63.734375 31.089844 63.980469 31.976562 63.980469 C 32.886719 63.980469 33.769531 63.734375 34.554688 63.292969 L 58.964844 49.195312 C 60.539062 48.285156 61.519531 46.585938 61.519531 44.742188 L 61.519531 19.234375 C 61.519531 17.390625 60.539062 15.691406 58.964844 14.78125 L 34.554688 0.683594 C 33.78125 0.242188 32.882812 0.0195312 31.984375 0.0195312 Z M 38.542969 19.714844 C 31.582031 19.714844 27.425781 22.664062 27.425781 27.585938 C 27.425781 32.921875 31.554688 34.394531 38.246094 35.0625 C 46.242188 35.847656 46.855469 37.03125 46.855469 38.605469 C 46.855469 41.3125 44.671875 42.46875 39.527344 42.46875 C 33.058594 42.46875 31.632812 40.84375 31.164062 37.644531 C 31.113281 37.300781 30.820312 37.054688 30.476562 37.054688 L 27.300781 37.054688 C 26.90625 37.054688 26.613281 37.378906 26.613281 37.746094 C 26.613281 41.855469 28.851562 46.746094 39.527344 46.746094 C 47.253906 46.746094 51.679688 43.699219 51.679688 38.386719 C 51.679688 33.121094 48.113281 31.714844 40.632812 30.707031 C 33.03125 29.722656 32.269531 29.207031 32.269531 27.433594 C 32.269531 25.960938 32.933594 24.019531 38.542969 24.019531 C 43.539062 24.019531 45.40625 25.097656 46.167969 28.46875 C 46.242188 28.789062 46.511719 29.035156 46.855469 29.035156 L 50.03125 29.035156 C 50.230469 29.035156 50.398438 28.9375 50.546875 28.789062 C 50.667969 28.667969 50.742188 28.46875 50.71875 28.246094 C 50.226562 22.441406 46.367188 19.714844 38.542969 19.714844 Z M 38.542969 19.714844 "/>
</g>
</svg>
